<svg width="65" height="65" viewBox="0 0 65 65" fill="none" xmlns="http://www.w3.org/2000/svg">
<path d="M11.771 64.3229C8.41044 64.3229 5.67725 61.5892 5.67725 58.2291V6.7708C5.67725 3.4107 8.41044 0.677048 11.771 0.677048H43.9907L58.4897 15.1761V58.2291C58.4897 61.5892 55.7561 64.3229 52.396 64.3229H11.771Z" fill="#F6F6F6"/>
<path d="M44.2708 0H11.7708C8.031 0 5 3.03157 5 6.77083V58.2292C5 61.9685 8.031 65 11.7708 65H52.3958C56.1356 65 59.1667 61.9685 59.1667 58.2292V14.8958L44.2708 0ZM43.7101 1.35416L57.8125 15.4566V58.2292C57.8125 61.2157 55.3835 63.6458 52.3958 63.6458H11.7708C8.78373 63.6458 6.35417 61.2157 6.35417 58.2292V6.77083C6.35417 3.78422 8.78373 1.35416 11.7708 1.35416H43.7101Z" fill="#E0E0E0"/>
<path d="M47.9946 44.6875H29.7134C28.592 44.6875 27.6821 43.7782 27.6821 42.6562C27.6821 41.5343 28.592 40.625 29.7134 40.625H47.9946C49.116 40.625 50.0259 41.5343 50.0259 42.6562C50.0259 43.7782 49.116 44.6875 47.9946 44.6875Z" fill="#D8D8D8"/>
<path d="M47.9946 52.8125H29.7134C28.592 52.8125 27.6821 51.9032 27.6821 50.7812C27.6821 49.6593 28.592 48.75 29.7134 48.75H47.9946C49.116 48.75 50.0259 49.6593 50.0259 50.7812C50.0259 51.9032 49.116 52.8125 47.9946 52.8125Z" fill="#D8D8D8"/>
<path d="M48.6717 36.5625H15.4946C14.3732 36.5625 13.4634 35.6532 13.4634 34.5312C13.4634 33.4093 14.3732 32.5 15.4946 32.5H48.6717C49.7931 32.5 50.703 33.4093 50.703 34.5312C50.703 35.6532 49.7931 36.5625 48.6717 36.5625Z" fill="#D8D8D8"/>
<path d="M11.771 64.3229C8.41044 64.3229 5.67725 61.5892 5.67725 58.2291V6.7708C5.67725 3.4103 8.41044 0.677048 11.771 0.677048H43.9907L58.4897 15.1761V58.2291C58.4897 61.5892 55.7561 64.3229 52.396 64.3229H11.771Z" fill="#D84953"/>
<path d="M44.2708 0H11.7708C8.031 0 5 3.03157 5 6.77083V58.2292C5 61.9685 8.031 65 11.7708 65H52.3958C56.1356 65 59.1667 61.9685 59.1667 58.2292V14.8958L44.2708 0ZM43.7101 1.35416L57.8125 15.4566V58.2292C57.8125 61.2157 55.3835 63.6458 52.3958 63.6458H11.7708C8.78373 63.6458 6.35417 61.2157 6.35417 58.2292V6.77083C6.35417 3.78422 8.78373 1.35416 11.7708 1.35416H43.7101Z" fill="#C4434C"/>
<path d="M46.2148 12.8682L59.3218 25.9756V12.8682H46.2148Z" fill="#C4434C"/>
<path d="M59.1668 14.8959H51.0418C47.302 14.8959 44.271 11.8643 44.271 8.12504V4.19617e-05H59.1668V14.8959Z" fill="#ECA4A9"/>
<path d="M14.2463 9.841V11.8404H14.9007C15.1826 11.8404 15.4234 11.7394 15.6243 11.5368C15.8244 11.3348 15.9248 11.0947 15.9248 10.8169C15.9248 10.4995 15.8122 10.2536 15.5847 10.0791C15.3599 9.90451 15.0372 9.81717 14.622 9.81717L14.2463 9.841ZM12.5986 8.43659H15.27C15.9883 8.43659 16.5675 8.64608 17.0076 9.06398C17.4483 9.48282 17.6689 10.033 17.6689 10.7159C17.6689 11.1639 17.5604 11.5898 17.3435 11.9918C17.1267 12.3948 16.8012 12.6953 16.3649 12.8937C15.9285 13.0921 15.5556 13.1951 15.2461 13.2031L14.2702 13.227V16.25H12.5986V8.43659Z" fill="white"/>
<path d="M20.692 9.91236V14.7387H21.3585C22.0487 14.7387 22.6147 14.5498 23.0591 14.1733C23.5035 13.7961 23.7256 13.1671 23.7256 12.2864C23.7256 11.7749 23.6198 11.3221 23.4056 10.9274C23.1914 10.5323 22.8792 10.2647 22.4746 10.1235C22.0673 9.98278 21.6785 9.91236 21.3108 9.91236H20.692ZM18.9956 8.43659H21.661C22.7999 8.43659 23.7166 8.79572 24.4106 9.51356C25.1052 10.2314 25.4527 11.1777 25.4527 12.352C25.4527 13.5306 25.093 14.4748 24.3788 15.1847C23.6622 15.8951 22.7085 16.25 21.5181 16.25H18.9956V8.43659Z" fill="white"/>
<path d="M26.7788 8.43659H31.1762V9.94784H28.452V11.5426H31.1762V13.0661H28.4626V16.25H26.7788V8.43659Z" fill="white"/>
<path d="M23.9583 50.7812C23.9583 51.9032 23.0485 52.8125 21.9271 52.8125H15.1562C14.0349 52.8125 13.125 51.9032 13.125 50.7812V42.6562C13.125 41.5343 14.0349 40.625 15.1562 40.625H21.9271C23.0485 40.625 23.9583 41.5343 23.9583 42.6562V50.7812Z" fill="#E0E0E0"/>
</svg>
