<svg width="65" height="65" viewBox="0 0 65 65" fill="none" xmlns="http://www.w3.org/2000/svg">
<path d="M32.5 65C50.4493 65 65 50.4493 65 32.5C65 14.5507 50.4493 0 32.5 0C14.5507 0 0 14.5507 0 32.5C0 50.4493 14.5507 65 32.5 65Z" fill="#C75C5C"/>
<path d="M16.4531 30.4688H20.5156V34.5312H16.4531V30.4688Z" fill="#4F5D73"/>
<path d="M16.4531 37.5782H20.5156V41.6407H16.4531V37.5782Z" fill="#4F5D73"/>
<path d="M16.4531 44.6875H20.5156V48.75H16.4531V44.6875Z" fill="#4F5D73"/>
<path d="M16.4531 23.3594H20.5156V27.4219H16.4531V23.3594Z" fill="#4F5D73"/>
<path d="M16.4531 16.25H20.5156V20.3125H16.4531V16.25Z" fill="#4F5D73"/>
<path d="M44.8906 30.4688H48.9531V34.5312H44.8906V30.4688Z" fill="#4F5D73"/>
<path d="M44.8906 37.5782H48.9531V41.6407H44.8906V37.5782Z" fill="#4F5D73"/>
<path d="M44.8906 44.6875H48.9531V48.75H44.8906V44.6875Z" fill="#4F5D73"/>
<path d="M44.8906 23.3594H48.9531V27.4219H44.8906V23.3594Z" fill="#4F5D73"/>
<path d="M44.8906 16.25H48.9531V20.3125H44.8906V16.25Z" fill="#4F5D73"/>
<path d="M24.5781 16.25H40.8281V30.4688H24.5781V16.25Z" fill="#4F5D73"/>
<path d="M24.5781 34.5313H40.8281V48.75H24.5781V34.5313Z" fill="#4F5D73"/>
<path opacity="0.2" d="M48.9531 14.2188H16.4531C14.2188 14.2188 12.3906 16.0469 12.3906 18.2812V50.7812C12.3906 53.0156 14.2188 54.8438 16.4531 54.8438H48.9531C51.1875 54.8438 53.0156 53.0156 53.0156 50.7812V18.2812C53.0156 16.0469 51.1875 14.2188 48.9531 14.2188ZM20.5156 50.7812H16.4531V46.7188H20.5156V50.7812ZM20.5156 43.6719H16.4531V39.6094H20.5156V43.6719ZM20.5156 36.5625H16.4531V32.5H20.5156V36.5625ZM20.5156 29.4531H16.4531V25.3906H20.5156V29.4531ZM20.5156 22.3438H16.4531V18.2812H20.5156V22.3438ZM40.8281 50.7812H24.5781V36.5625H40.8281V50.7812ZM40.8281 32.5H24.5781V18.2812H40.8281V32.5ZM48.9531 50.7812H44.8906V46.7188H48.9531V50.7812ZM48.9531 43.6719H44.8906V39.6094H48.9531V43.6719ZM48.9531 36.5625H44.8906V32.5H48.9531V36.5625ZM48.9531 29.4531H44.8906V25.3906H48.9531V29.4531ZM48.9531 22.3438H44.8906V18.2812H48.9531V22.3438Z" fill="#231F20"/>
<path d="M48.9531 12.1875H16.4531C14.2188 12.1875 12.3906 14.0156 12.3906 16.25V48.75C12.3906 50.9844 14.2188 52.8125 16.4531 52.8125H48.9531C51.1875 52.8125 53.0156 50.9844 53.0156 48.75V16.25C53.0156 14.0156 51.1875 12.1875 48.9531 12.1875ZM20.5156 48.75H16.4531V44.6875H20.5156V48.75ZM20.5156 41.6406H16.4531V37.5781H20.5156V41.6406ZM20.5156 34.5312H16.4531V30.4688H20.5156V34.5312ZM20.5156 27.4219H16.4531V23.3594H20.5156V27.4219ZM20.5156 20.3125H16.4531V16.25H20.5156V20.3125ZM40.8281 48.75H24.5781V34.5312H40.8281V48.75ZM40.8281 30.4688H24.5781V16.25H40.8281V30.4688ZM48.9531 48.75H44.8906V44.6875H48.9531V48.75ZM48.9531 41.6406H44.8906V37.5781H48.9531V41.6406ZM48.9531 34.5312H44.8906V30.4688H48.9531V34.5312ZM48.9531 27.4219H44.8906V23.3594H48.9531V27.4219ZM48.9531 20.3125H44.8906V16.25H48.9531V20.3125Z" fill="#E0E0D1"/>
</svg>
