<svg width="45" height="45" viewBox="0 0 45 45" fill="none" xmlns="http://www.w3.org/2000/svg">
<path d="M22.5 45C34.9264 45 45 34.9264 45 22.5C45 10.0736 34.9264 0 22.5 0C10.0736 0 0 10.0736 0 22.5C0 34.9264 10.0736 45 22.5 45Z" fill="#42AFC2"/>
<path opacity="0.2" d="M33.75 22.5C33.75 17.9297 31.0781 14.0625 27.1406 12.3047C25.9453 11.7422 25.3125 12.6563 25.3125 13.4297V19.4063C25.3125 19.9688 25.8047 20.3906 26.3672 20.3906H28.5469C29.6016 20.3906 29.8828 21.1641 29.1797 22.0781L23.7656 28.9688C23.0625 29.8125 21.9375 29.8125 21.3047 28.9688L15.8906 22.0781C15.1875 21.2344 15.4688 20.3906 16.5234 20.3906H18.7031C19.2656 20.3906 19.7578 19.9688 19.7578 19.4063V13.4297C19.7578 12.6563 18.7031 11.9531 17.7891 12.3047C14.7656 13.711 12.4453 16.4531 11.6719 19.7578C8.22656 20.3203 5.625 23.2031 5.625 26.7188C5.625 30.586 8.78906 33.75 12.6562 33.75H33.75C36.8438 33.75 39.375 31.2188 39.375 28.125C39.375 25.0313 36.8438 22.5 33.75 22.5Z" fill="#231F20"/>
<path d="M33.75 21.0938C33.75 16.5235 31.0781 12.6563 27.1406 10.8985C25.9453 10.336 25.3125 11.25 25.3125 12.0235V18C25.3125 18.5625 25.8047 18.9844 26.3672 18.9844H28.5469C29.6016 18.9844 29.8828 19.7578 29.1797 20.6719L23.7656 27.5625C23.0625 28.4063 21.9375 28.4063 21.3047 27.5625L15.8906 20.6719C15.1875 19.8281 15.4688 18.9844 16.5234 18.9844H18.7031C19.2656 18.9844 19.7578 18.5625 19.7578 18V12.0235C19.7578 11.25 18.7031 10.5469 17.7891 10.8985C14.7656 12.3047 12.4453 15.0469 11.6719 18.3516C8.22656 18.9141 5.625 21.7969 5.625 25.3125C5.625 29.1797 8.78906 32.3438 12.6562 32.3438H33.75C36.8438 32.3438 39.375 29.8125 39.375 26.7188C39.375 23.625 36.8438 21.0938 33.75 21.0938Z" fill="white"/>
</svg>
